<svg width="19" height="22" viewBox="0 0 19 22" fill="none" xmlns="http://www.w3.org/2000/svg">
<path d="M9.86816 21.2656V19.2656H16.8682V18.2656H12.8682V10.2656H16.8682V9.26562C16.8682 7.33229 16.1848 5.68229 14.8182 4.31563C13.4515 2.94896 11.8015 2.26562 9.86816 2.26562C7.93483 2.26562 6.28483 2.94896 4.91816 4.31563C3.5515 5.68229 2.86816 7.33229 2.86816 9.26562V10.2656H6.86816V18.2656H2.86816C2.31816 18.2656 1.84716 18.07 1.45516 17.6786C1.06383 17.2866 0.868164 16.8156 0.868164 16.2656V9.26562C0.868164 8.03229 1.1055 6.86963 1.58016 5.77763C2.0555 4.68629 2.7015 3.73229 3.51816 2.91563C4.33483 2.09896 5.28883 1.45296 6.38016 0.977625C7.47216 0.502958 8.63483 0.265625 9.86816 0.265625C11.1015 0.265625 12.2642 0.502958 13.3562 0.977625C14.4475 1.45296 15.4015 2.09896 16.2182 2.91563C17.0348 3.73229 17.6808 4.68629 18.1562 5.77763C18.6308 6.86963 18.8682 8.03229 18.8682 9.26562V19.2656C18.8682 19.8156 18.6725 20.2866 18.2812 20.6786C17.8892 21.07 17.4182 21.2656 16.8682 21.2656H9.86816ZM2.86816 16.2656H4.86816V12.2656H2.86816V16.2656ZM14.8682 16.2656H16.8682V12.2656H14.8682V16.2656Z" fill="#1C1B1F"/>
</svg>
