<svg width="17" height="21" viewBox="0 0 17 21" fill="none" xmlns="http://www.w3.org/2000/svg">
<path d="M8.86816 10.0938C9.41816 10.0938 9.88916 9.89775 10.2812 9.50575C10.6725 9.11442 10.8682 8.64375 10.8682 8.09375C10.8682 7.54375 10.6725 7.07275 10.2812 6.68075C9.88916 6.28942 9.41816 6.09375 8.86816 6.09375C8.31816 6.09375 7.8475 6.28942 7.45616 6.68075C7.06416 7.07275 6.86816 7.54375 6.86816 8.09375C6.86816 8.64375 7.06416 9.11442 7.45616 9.50575C7.8475 9.89775 8.31816 10.0938 8.86816 10.0938ZM8.86816 17.4438C10.9015 15.5771 12.4098 13.8811 13.3932 12.3558C14.3765 10.8311 14.8682 9.47708 14.8682 8.29375C14.8682 6.47708 14.2888 4.98942 13.1302 3.83075C11.9722 2.67275 10.5515 2.09375 8.86816 2.09375C7.18483 2.09375 5.76383 2.67275 4.60516 3.83075C3.44716 4.98942 2.86816 6.47708 2.86816 8.29375C2.86816 9.47708 3.35983 10.8311 4.34316 12.3558C5.3265 13.8811 6.83483 15.5771 8.86816 17.4438ZM8.86816 20.0938C6.18483 17.8104 4.18083 15.6894 2.85616 13.7308C1.53083 11.7727 0.868164 9.96042 0.868164 8.29375C0.868164 5.79375 1.6725 3.80208 3.28116 2.31875C4.88916 0.835417 6.7515 0.09375 8.86816 0.09375C10.9848 0.09375 12.8472 0.835417 14.4552 2.31875C16.0638 3.80208 16.8682 5.79375 16.8682 8.29375C16.8682 9.96042 16.2058 11.7727 14.8812 13.7308C13.5558 15.6894 11.5515 17.8104 8.86816 20.0938Z" fill="#1C1B1F"/>
</svg>
