<svg width="21" height="17" viewBox="0 0 21 17" fill="none" xmlns="http://www.w3.org/2000/svg">
<path d="M2.86816 16.2656C2.31816 16.2656 1.8475 16.07 1.45616 15.6786C1.06416 15.2866 0.868164 14.8156 0.868164 14.2656V2.26562C0.868164 1.71563 1.06416 1.24496 1.45616 0.853625C1.8475 0.461625 2.31816 0.265625 2.86816 0.265625H18.8682C19.4182 0.265625 19.8892 0.461625 20.2812 0.853625C20.6725 1.24496 20.8682 1.71563 20.8682 2.26562V14.2656C20.8682 14.8156 20.6725 15.2866 20.2812 15.6786C19.8892 16.07 19.4182 16.2656 18.8682 16.2656H2.86816ZM10.8682 9.26562L2.86816 4.26562V14.2656H18.8682V4.26562L10.8682 9.26562ZM10.8682 7.26562L18.8682 2.26562H2.86816L10.8682 7.26562ZM2.86816 4.26562V2.26562V14.2656V4.26562Z" fill="#1C1B1F"/>
</svg>
