<svg width="51" height="51" viewBox="0 0 51 51" fill="none" xmlns="http://www.w3.org/2000/svg">
<path fill-rule="evenodd" clip-rule="evenodd" d="M0.35791 0.365234H50.6284V50.6357H0.35791V0.365234Z" fill="white"/>
<path fill-rule="evenodd" clip-rule="evenodd" d="M25.504 35.0612C27.7643 37.1439 30.7998 38.4072 34.1015 38.4072C41.1923 38.4072 46.9315 32.6237 46.9315 25.5105C46.9315 18.3755 41.1923 12.5918 34.1015 12.5918C30.7998 12.5918 27.7643 13.8548 25.504 15.9378C22.9114 18.3088 21.2715 21.7213 21.2715 25.5105C21.2717 29.2996 22.9114 32.7124 25.504 35.0612Z" fill="#E9B040"/>
<path fill-rule="evenodd" clip-rule="evenodd" d="M45.2261 32.6917C45.2261 32.4701 45.4034 32.293 45.6248 32.293C45.8684 32.293 46.0455 32.4703 46.0455 32.6917C46.0455 32.9358 45.8682 33.1129 45.6248 33.1129C45.4034 33.1129 45.2261 32.9358 45.2261 32.6917ZM45.6248 33.0245C45.8022 33.0245 45.9568 32.8691 45.9568 32.692C45.9568 32.5149 45.8019 32.3819 45.6248 32.3819C45.4694 32.3819 45.3147 32.5149 45.3147 32.692C45.3147 32.8691 45.4697 33.0245 45.6248 33.0245ZM45.5805 32.8915H45.4918V32.5146H45.6467C45.6692 32.5146 45.7135 32.5146 45.7354 32.5371C45.7798 32.559 45.7798 32.5814 45.7798 32.6257C45.7798 32.6701 45.7578 32.7144 45.7135 32.7144L45.8022 32.8918H45.6911L45.6467 32.7363H45.5805V32.8915V32.6698H45.6692C45.6911 32.6698 45.6911 32.6474 45.6911 32.6255C45.6911 32.6031 45.6911 32.6031 45.6692 32.5812H45.5805V32.8915Z" fill="#E9B040"/>
<path fill-rule="evenodd" clip-rule="evenodd" d="M29.6477 24.1368C29.6033 23.6716 29.5147 23.2285 29.426 22.7629H21.5817C21.6704 22.2977 21.8034 21.8546 21.9361 21.4112H29.0494C28.895 20.9447 28.7175 20.4862 28.5176 20.0373H22.4903C22.712 19.568 22.9561 19.1095 23.2216 18.6635H27.7645C27.4722 18.1902 27.1464 17.7385 26.7896 17.3117H24.1967C24.5978 16.8219 25.0348 16.3627 25.5041 15.9378C23.2219 13.877 20.2081 12.5918 16.8842 12.5918C9.8155 12.5918 4.0542 18.3755 4.0542 25.5105C4.0542 32.6237 9.8155 38.4072 16.8842 38.4072C20.2081 38.4072 23.2216 37.1439 25.5041 35.0612C25.9662 34.6437 26.396 34.1918 26.7896 33.7092H24.1967C23.842 33.2661 23.5319 32.823 23.2216 32.3353H27.7645C28.0501 31.8971 28.302 31.4378 28.5179 30.9614H22.4903C22.2908 30.5183 22.0916 30.0752 21.9361 29.6094H29.0494C29.2043 29.1663 29.3154 28.7013 29.4257 28.2355C29.5144 27.7924 29.6031 27.3274 29.6474 26.8617C29.6923 26.4124 29.7146 25.9612 29.7142 25.5097C29.7142 25.0452 29.692 24.5799 29.6477 24.1368Z" fill="#CC2131"/>
<path fill-rule="evenodd" clip-rule="evenodd" d="M45.2261 28.5027C45.2261 28.2591 45.4034 28.082 45.6248 28.082C45.8684 28.082 46.0455 28.2594 46.0455 28.5027C46.0455 28.7244 45.8682 28.9239 45.6248 28.9239C45.4034 28.9239 45.2261 28.7241 45.2261 28.5027ZM45.6248 28.8128C45.8022 28.8128 45.9568 28.6798 45.9568 28.5027C45.9568 28.3256 45.8019 28.1926 45.6248 28.1926C45.4694 28.1926 45.3147 28.3256 45.3147 28.5027C45.3147 28.6798 45.4697 28.8128 45.6248 28.8128ZM45.5805 28.6798H45.4918V28.3254H45.7354C45.7798 28.3478 45.7798 28.3921 45.7798 28.4365C45.7798 28.4584 45.7578 28.5027 45.7135 28.5251L45.8022 28.68H45.6911L45.6467 28.547H45.5805V28.6798V28.4805H45.6248C45.6467 28.4805 45.6692 28.4805 45.6692 28.4581C45.6911 28.4581 45.6911 28.4362 45.6911 28.4138C45.6911 28.4138 45.6911 28.3919 45.6692 28.3919C45.6692 28.3694 45.6467 28.3919 45.6248 28.3919H45.5805V28.6798Z" fill="white"/>
<path fill-rule="evenodd" clip-rule="evenodd" d="M21.1387 29.2352C20.7178 29.3458 20.4075 29.4126 20.0974 29.4126C19.4326 29.4126 19.0336 28.9914 19.0336 28.2379C19.0336 28.083 19.0557 27.9278 19.0779 27.7505L19.1666 27.2412L19.2331 26.82L19.8313 23.186H21.1609L21.0057 23.9838H21.8478L21.6483 25.3133H20.8062L20.4518 27.4847C20.4296 27.5958 20.4296 27.6621 20.4296 27.7064C20.4296 27.9946 20.5626 28.1052 20.8949 28.1052C21.0501 28.1052 21.1828 28.0833 21.3158 28.0608L21.1387 29.2352ZM25.4377 29.1909C24.9503 29.3239 24.5072 29.3901 24.0195 29.3901C22.5126 29.3901 21.6483 28.5924 21.6483 27.0195C21.6483 25.1801 22.6678 23.8505 24.0858 23.8505C25.2158 23.8505 25.9471 24.604 25.9471 25.7781C25.9471 26.1774 25.9027 26.554 25.7922 27.0857H23.0222C23 27.1744 23 27.2187 23 27.2631C23 27.8835 23.421 28.1936 24.2188 28.1936C24.7284 28.1936 25.1715 28.083 25.6592 27.8616L25.4377 29.1909ZM24.6178 26.0222V25.7562C24.6178 25.3131 24.3739 25.0692 23.953 25.0692C23.5096 25.0692 23.1996 25.4015 23.0666 26.0219H24.6178V26.0222ZM10.5023 29.3015H9.12843L9.92621 24.2717L8.1314 29.3015H7.1787L7.06786 24.2939L6.22574 29.3015H4.87402L5.95973 22.7648H7.97622L8.02056 26.7981L9.37228 22.7648H11.5883L10.5023 29.3015ZM13.8486 26.9308C13.7156 26.9084 13.6713 26.9084 13.5826 26.9084C12.7848 26.9084 12.3861 27.2185 12.3861 27.7062C12.3861 28.0387 12.5856 28.2604 12.8957 28.2604C13.5604 28.2604 13.8262 27.7062 13.8486 26.9308ZM14.9565 29.3015H13.76L13.7821 28.7478C13.4718 29.1685 13.0508 29.3901 12.3196 29.3901C11.6548 29.3901 11.0787 28.7921 11.0787 27.9278C11.0787 27.6843 11.123 27.4628 11.1895 27.2412C11.4109 26.4209 12.2309 25.9116 13.4939 25.8892C13.6491 25.8892 13.8927 25.8892 14.1144 25.9116C14.1585 25.7343 14.1585 25.6675 14.1585 25.5569C14.1585 25.2022 13.8705 25.0914 13.2279 25.0914C12.8292 25.0914 12.3858 25.1579 12.0757 25.2687L11.8762 25.3131L11.7875 25.335L11.987 24.1384C12.6297 23.9389 13.0949 23.8505 13.6048 23.8505C14.8013 23.8505 15.4439 24.4045 15.4439 25.4237C15.4439 25.6897 15.4661 25.8892 15.3774 26.4653L15.0673 28.3709L15.023 28.7035L15.0008 28.9695L14.9787 29.1468L14.9565 29.3015ZM32.1298 24.0279C32.5286 24.0279 32.8833 24.1387 33.3707 24.3823L33.6143 22.9641C33.4813 22.8976 33.4369 22.8976 33.2599 22.8311L32.7062 22.6759C32.5289 22.6315 32.3074 22.6094 32.0633 22.6094C31.3761 22.6094 30.9774 22.6315 30.5567 22.8754C30.335 23.0306 30.0468 23.2301 29.7365 23.5845L29.5591 23.5402L28.1409 24.5372L28.2077 23.9833H26.7449L25.8811 29.3012H27.2774L27.7867 26.4431C27.7867 26.4431 27.9865 26.0438 28.0749 25.9113C28.3409 25.5788 28.5624 25.5788 28.8503 25.5788H28.9614C28.9149 25.9165 28.8926 26.2571 28.8946 26.598C28.8946 28.3263 29.8695 29.4123 31.3764 29.4123C31.7532 29.4123 32.086 29.368 32.5954 29.235L32.8395 27.7283C32.3964 27.9719 31.9973 28.0828 31.6648 28.0828C30.8451 28.0828 30.3572 27.4623 30.3572 26.4874C30.3567 25.0471 31.0882 24.0279 32.1298 24.0279ZM43.8958 22.7648L43.5859 24.6261C43.2534 24.1165 42.8544 23.8727 42.3226 23.8727C41.5911 23.8727 40.9044 24.2936 40.4832 25.0914V25.0695L39.597 24.5375L39.6857 23.9835H38.201L37.3588 29.3015H38.7327L39.1983 26.4434C39.1983 26.4434 39.5527 26.0441 39.6413 25.9116C39.863 25.6456 40.0844 25.601 40.2618 25.5791C40.1069 26.0222 40.0182 26.554 40.0182 27.1525C40.0182 28.482 40.7049 29.3682 41.7241 29.3682C42.2339 29.3682 42.6327 29.1909 43.0093 28.7697L42.9431 29.3015H44.2507L45.3142 22.7648H43.8958ZM42.1899 28.0387C41.7243 28.0387 41.4808 27.6843 41.4808 26.9971C41.4808 25.9554 41.9239 25.2022 42.5662 25.2022C43.0536 25.2022 43.2977 25.5791 43.2977 26.2439C43.2977 27.3074 42.8546 28.0387 42.1899 28.0387ZM35.7862 26.9308C35.6532 26.9084 35.6089 26.9084 35.5202 26.9084C34.7219 26.9084 34.3231 27.2185 34.3231 27.7062C34.3231 28.0387 34.5229 28.2604 34.833 28.2604C35.4978 28.2604 35.7638 27.7062 35.7862 26.9308ZM36.8941 29.3015H35.6751L35.7195 28.7478C35.4094 29.1685 34.9879 29.3901 34.2572 29.3901C33.57 29.3901 32.9719 28.814 32.9719 27.9278C32.9719 26.6651 33.9244 25.8894 35.4313 25.8894C35.5867 25.8894 35.83 25.8894 36.0298 25.9119C36.0741 25.7345 36.0966 25.6678 36.0966 25.5572C36.0966 25.2025 35.8084 25.0917 35.1436 25.0917C34.7668 25.0917 34.3015 25.1582 33.9914 25.269L33.8141 25.3133L33.7254 25.3352L33.9246 24.1387C34.5675 23.9392 35.033 23.8508 35.5424 23.8508C36.7389 23.8508 37.3594 24.4047 37.3594 25.4239C37.3594 25.6899 37.4037 25.8894 37.2931 26.4655L37.0049 28.3712L36.9606 28.7037L36.9163 28.9697L36.8944 29.1471V29.3015H36.8941ZM17.8592 25.1136C18.1252 25.1136 18.5018 25.1357 18.9008 25.2022L19.1003 23.9614C18.7013 23.917 18.1695 23.8505 17.8592 23.8505C16.3082 23.8505 15.7986 24.6926 15.7986 25.6675C15.7986 26.3104 16.0865 26.7754 16.84 27.1298C17.3939 27.3958 17.4826 27.4399 17.4826 27.684C17.4826 28.016 17.1947 28.2158 16.6626 28.2158C16.2417 28.2158 15.8427 28.149 15.3996 27.9941L15.2444 29.2125L15.2663 29.235L15.5323 29.2793C15.621 29.3012 15.7319 29.3236 15.887 29.3455C16.2193 29.368 16.5075 29.3899 16.6848 29.3899C18.236 29.3899 18.8786 28.7919 18.8786 27.6172C18.8786 26.8862 18.524 26.4431 17.837 26.133C17.2387 25.8668 17.1722 25.8229 17.1722 25.5788C17.1722 25.3352 17.4383 25.1136 17.8592 25.1136Z" fill="#1B3771"/>
<path fill-rule="evenodd" clip-rule="evenodd" d="M33.9914 22.5432L33.7472 23.9614C33.2598 23.7176 32.9051 23.607 32.5064 23.607C31.4647 23.607 30.7337 24.6262 30.7337 26.0666C30.7337 27.0639 31.2211 27.6619 32.0414 27.6619C32.3734 27.6619 32.7724 27.5513 33.2155 27.3299L32.9719 28.8141C32.462 28.9471 32.1298 29.0139 31.7529 29.0139C30.2463 29.0139 29.3155 27.9279 29.3155 26.1777C29.3155 23.8508 30.6007 22.2109 32.4399 22.2109C32.6834 22.2109 32.9049 22.2331 33.0822 22.2774L33.6364 22.4104C33.814 22.477 33.8583 22.4991 33.9914 22.5432ZM29.515 23.5183H29.382C28.917 23.5183 28.651 23.74 28.2298 24.3823L28.3628 23.5624H27.0995L26.2357 28.8806H27.632C28.1414 25.6232 28.2744 25.0693 28.9392 25.0693H29.0278C29.1608 24.4267 29.3379 23.9612 29.5596 23.5402L29.515 23.5183ZM21.4936 28.8141C21.117 28.9471 20.8067 28.9914 20.4966 28.9914C19.7875 28.9914 19.3885 28.5927 19.3885 27.8173C19.3885 27.6843 19.4106 27.5072 19.4328 27.3518L19.5215 26.82L19.588 26.3994L20.1862 22.7649H21.5601L21.4049 23.5627H22.1141L21.9367 24.87H21.2276L20.851 27.086C20.8288 27.1747 20.8288 27.2415 20.8288 27.3077C20.8288 27.5737 20.9618 27.6846 21.2941 27.6846C21.4493 27.6846 21.582 27.6846 21.6707 27.6402L21.4936 28.8141ZM16.1532 25.2466C16.1532 25.9117 16.4633 26.3767 17.1946 26.7314C17.7707 26.9974 17.8594 27.0858 17.8594 27.3075C17.8594 27.64 17.6155 27.7949 17.0616 27.7949C16.6407 27.7949 16.2638 27.7287 15.8207 27.5956L15.6212 28.8141L15.6877 28.8365L15.9316 28.8809C16.02 28.9028 16.1311 28.9252 16.3082 28.9252C16.6182 28.9695 16.8843 28.9695 17.0616 28.9695C18.5239 28.9695 19.2111 28.4153 19.2111 27.1969C19.2111 26.4653 18.9232 26.0442 18.2362 25.7122C17.638 25.4461 17.5715 25.3799 17.5715 25.1361C17.5715 24.8481 17.8153 24.7151 18.2584 24.7151C18.5244 24.7151 18.901 24.7373 19.2557 24.7816L19.455 23.5629C19.1005 23.4964 18.5466 23.4521 18.2362 23.4521C16.685 23.4518 16.1311 24.2718 16.1532 25.2466ZM44.6056 28.8809H43.298L43.3647 28.371C42.9879 28.7698 42.5888 28.9471 42.079 28.9471C41.0598 28.9471 40.395 28.0833 40.395 26.7538C40.395 24.9809 41.4366 23.474 42.6551 23.474C43.2093 23.474 43.608 23.7178 43.9852 24.2053L44.2952 22.3439H45.6691L44.6056 28.8809ZM42.5667 27.64C43.2095 27.64 43.6526 26.8865 43.6526 25.8449C43.6526 25.158 43.4085 24.8033 42.9211 24.8033C42.3007 24.8033 41.8357 25.5346 41.8357 26.5762C41.8357 27.2856 42.0792 27.64 42.5667 27.64ZM25.748 28.7698C25.2603 28.9252 24.8172 28.9914 24.3076 28.9914C22.7564 28.9914 21.9586 28.1718 21.9586 26.5984C21.9586 24.7814 22.9781 23.4296 24.3741 23.4296C25.5263 23.4296 26.2574 24.1831 26.2574 25.3575C26.2574 25.7565 26.213 26.1333 26.08 26.687H23.3328C23.3106 26.7538 23.3106 26.7981 23.3106 26.8425C23.3106 27.4629 23.7318 27.773 24.5293 27.773C25.0389 27.773 25.482 27.6843 25.9697 27.4405L25.748 28.7698ZM24.9724 25.6011V25.3353C24.9724 24.8922 24.7286 24.6484 24.3076 24.6484C23.8645 24.6484 23.5542 24.9809 23.4212 25.6011H24.9724ZM10.8572 28.8809H9.48332L10.2811 23.8506L8.48628 28.8809H7.53332L7.42248 23.8949L6.58063 28.8809H5.29541L6.38112 22.3439H8.37544L8.44195 26.3991L9.77124 22.3439H11.9429L10.8572 28.8809ZM14.2919 26.5097C14.1589 26.5097 14.0924 26.4878 13.9816 26.4878C13.206 26.4878 12.8072 26.7757 12.8072 27.3075C12.8072 27.64 12.9845 27.8392 13.2946 27.8392C13.8707 27.8392 14.2698 27.3075 14.2919 26.5097ZM15.3111 28.8809H14.1587L14.1808 28.3267C13.8261 28.7698 13.3609 28.9695 12.7183 28.9695C11.9648 28.9695 11.4552 28.3934 11.4552 27.5291C11.4552 26.222 12.3414 25.4686 13.8926 25.4686C14.0478 25.4686 14.2473 25.4907 14.4687 25.5126C14.5131 25.3356 14.5131 25.2691 14.5131 25.1804C14.5131 24.826 14.2692 24.693 13.6266 24.693C13.2279 24.693 12.7845 24.7373 12.4744 24.826L12.2749 24.8925L12.1419 24.9146L12.3414 23.7181C13.0284 23.5186 13.4936 23.4521 14.0035 23.4521C15.2 23.4521 15.8426 23.9838 15.8426 25.003C15.8426 25.2691 15.8205 25.4686 15.7318 26.0668L15.4214 27.9506L15.3771 28.2826L15.3549 28.5486L15.3328 28.7484L15.3111 28.8809ZM36.2295 26.5097C36.0741 26.5097 36.0078 26.4878 35.9194 26.4878C35.1217 26.4878 34.7224 26.7757 34.7224 27.3075C34.7224 27.64 34.9221 27.8392 35.2322 27.8392C35.7864 27.8392 36.2071 27.3075 36.2295 26.5097ZM37.2487 28.8809H36.0965L36.1184 28.3267C35.764 28.7698 35.2987 28.9695 34.6561 28.9695C33.9027 28.9695 33.3928 28.3934 33.3928 27.5291C33.3928 26.222 34.279 25.4686 35.8302 25.4686C35.9857 25.4686 36.1852 25.4907 36.3844 25.5126C36.4288 25.3356 36.4512 25.2691 36.4512 25.1804C36.4512 24.826 36.2071 24.693 35.565 24.693C35.1657 24.693 34.7007 24.7373 34.3904 24.826L34.213 24.8925L34.08 24.9146L34.2793 23.7181C34.9665 23.5186 35.4315 23.4521 35.9413 23.4521C37.1379 23.4521 37.7583 23.9838 37.7583 25.003C37.7583 25.2691 37.7583 25.4686 37.6478 26.0668L37.3596 27.9506L37.3152 28.2826L37.2709 28.5486L37.249 28.7484V28.8809H37.2487ZM40.9714 23.5183H40.8384C40.3734 23.5183 40.1073 23.74 39.6862 24.3823L39.8192 23.5624H38.5559L37.7137 28.8806H39.0876C39.5975 25.6232 39.7305 25.0693 40.3953 25.0693H40.4839C40.6169 24.4267 40.794 23.9612 41.0157 23.5402L40.9714 23.5183Z" fill="white"/>
</svg>
