<svg width="52" height="51" viewBox="0 0 52 51" fill="none" xmlns="http://www.w3.org/2000/svg">
<path d="M23.2228 32.1352H19.7707L21.9282 18.8756H25.3808L23.2228 32.1352ZM16.8665 18.8756L13.5753 27.9957L13.1859 26.0318L13.1863 26.0325L12.0247 20.0695C12.0247 20.0695 11.8842 18.8756 10.3871 18.8756H4.94617L4.88232 19.1001C4.88232 19.1001 6.54616 19.4463 8.49339 20.6157L11.4926 32.1356H15.0895L20.5818 18.8756H16.8665ZM44.0196 32.1352H47.1894L44.4257 18.8752H41.6506C40.3691 18.8752 40.057 19.8634 40.057 19.8634L34.9084 32.1352H38.507L39.2267 30.1656H43.6152L44.0196 32.1352ZM40.2209 27.4448L42.0347 22.4828L43.0552 27.4448H40.2209ZM35.1783 22.0642L35.6709 19.2168C35.6709 19.2168 34.1507 18.6387 32.566 18.6387C30.8529 18.6387 26.7846 19.3874 26.7846 23.0283C26.7846 26.4538 31.5594 26.4964 31.5594 28.2957C31.5594 30.0951 27.2766 29.7727 25.8631 28.638L25.3499 31.6153C25.3499 31.6153 26.8914 32.364 29.2465 32.364C31.6023 32.364 35.1563 31.1442 35.1563 27.8244C35.1563 24.3768 30.3386 24.0558 30.3386 22.5569C30.3389 21.0576 33.701 21.2502 35.1783 22.0642Z" fill="#2566AF"/>
<path d="M13.1863 26.0319L12.0247 20.0689C12.0247 20.0689 11.8842 18.875 10.3871 18.875H4.94617L4.88232 19.0995C4.88232 19.0995 7.49743 19.6415 10.0058 21.6721C12.4042 23.6129 13.1863 26.0319 13.1863 26.0319Z" fill="#E6A540"/>
</svg>
